<?xml version="1.0" encoding="utf-8"?>
<!-- Generator: Adobe Illustrator 18.1.1, SVG Export Plug-In . SVG Version: 6.00 Build 0)  -->
<svg version="1.1" id="Layer_1" xmlns="http://www.w3.org/2000/svg" xmlns:xlink="http://www.w3.org/1999/xlink" x="0px" y="0px"
	 viewBox="0 0 67.2 25.8" width="67.2px" height="25.8px" enable-background="new 0 0 67.2 25.8" xml:space="preserve">
<g>
	<g>
		<defs>
			<path id="SVGID_1_" d="M0.5,12.1c0,6.4,5.2,11.6,11.6,11.6c3.3,0,6.2-1.4,8.3-3.5c-4.2-0.6-7.4-4-7.4-8.1c0-4.1,3.2-7.5,7.4-8.1
				c-2.1-2.2-5.1-3.5-8.3-3.5C5.7,0.5,0.5,5.7,0.5,12.1"/>
		</defs>
		<clipPath id="SVGID_2_">
			<use xlink:href="#SVGID_1_"  overflow="visible"/>
		</clipPath>
			<linearGradient id="SVGID_3_" gradientUnits="userSpaceOnUse" x1="-385.4306" y1="310.5044" x2="-385.1352" y2="310.5044" gradientTransform="matrix(0 -78.5927 78.5927 0 -24392.8652 -30268.2832)">
			<stop  offset="0" style="stop-color:#FFF"/>
			<stop  offset="6.263638e-02" style="stop-color:#FFF"/>
			<stop  offset="0.2089" style="stop-color:#FFF"/>
			<stop  offset="0.3794" style="stop-color:#FFF"/>
			<stop  offset="0.5945" style="stop-color:#FFF"/>
			<stop  offset="1" style="stop-color:#FFF"/>
		</linearGradient>
		<rect x="0.5" y="0.5" clip-path="url(#SVGID_2_)" fill="url(#SVGID_3_)" width="20" height="23.2"/>
	</g>
	<path fill="#FFF" d="M33.3,6.5c-0.7-0.4-1.3-0.8-1.9-1c-0.6-0.2-1.2-0.3-1.8-0.3c-1,0-1.7,0.3-2.4,0.8c-0.6,0.6-0.9,1.3-0.9,2.1
		c0,0.7,0.2,1.3,0.6,1.7c0.4,0.4,1.2,0.9,2.5,1.5c0.1,0,0.2,0.1,0.3,0.1c1.5,0.6,2.4,1.2,2.9,1.7c0.3,0.4,0.6,0.8,0.8,1.3
		c0.2,0.5,0.3,1,0.3,1.5c0,1.3-0.4,2.3-1.3,3.1c-0.9,0.8-2,1.2-3.4,1.2c-0.7,0-1.4-0.1-2-0.4c-0.7-0.2-1.4-0.6-2-1v-1.5
		c0.7,0.6,1.4,1,2.1,1.3c0.7,0.3,1.3,0.4,1.9,0.4c1,0,1.8-0.3,2.4-0.8c0.6-0.6,0.9-1.3,0.9-2.3c0-0.7-0.2-1.3-0.6-1.8
		c-0.4-0.5-1.3-1-2.8-1.6c-1.5-0.6-2.5-1.3-3.1-1.9c-0.6-0.6-0.8-1.4-0.8-2.4c0-1.2,0.4-2.2,1.3-3c0.8-0.8,2-1.2,3.3-1.2
		c0.6,0,1.2,0.1,1.8,0.3c0.6,0.2,1.2,0.4,1.8,0.8V6.5"/>
	<polygon fill="#FFF" points="39,18.1 34.7,9.7 36,9.7 39.6,16.8 43.1,9.7 44.3,9.7 36.6,25.3 35.5,25.3 	"/>
	<path fill="#FFF" d="M47.8,16.8c-0.8-0.3-1.5-0.8-1.9-1.4c-0.4-0.6-0.7-1.3-0.7-2.1c0-0.6,0.2-1.2,0.5-1.8c0.3-0.5,0.8-1,1.4-1.4
		c0.3-0.2,0.7-0.3,1.1-0.4c0.4-0.1,1-0.1,1.9-0.1h3.9v1h-2.2c0.4,0.4,0.7,0.8,0.9,1.3c0.2,0.4,0.3,0.9,0.3,1.5
		c0,0.9-0.3,1.7-0.8,2.3c-0.5,0.6-1.4,1.1-2.5,1.4c-0.2,0.1-0.4,0.1-0.8,0.2C47.6,17.6,47,18,47,18.6c0,0.5,0.8,0.9,2.5,1
		c0.1,0,0.1,0,0.1,0c1.6,0.2,2.7,0.4,3.3,0.9c0.6,0.4,0.9,1.1,0.9,1.9c0,1-0.4,1.8-1.2,2.3c-0.8,0.5-2,0.7-3.6,0.7
		c-1.4,0-2.5-0.2-3.3-0.7c-0.8-0.5-1.1-1.2-1.1-2.1c0-0.7,0.2-1.2,0.7-1.7c0.5-0.5,1.2-0.7,2-0.9c-0.5-0.1-0.8-0.3-1.1-0.5
		c-0.2-0.3-0.4-0.6-0.4-0.9c0-0.4,0.2-0.7,0.5-1.1C46.7,17.2,47.2,17,47.8,16.8 M49.2,20.6c-1.2,0-2.1,0.2-2.6,0.5
		c-0.6,0.3-0.9,0.8-0.9,1.5c0,0.6,0.3,1,0.9,1.3c0.6,0.3,1.4,0.5,2.5,0.5c1.2,0,2.1-0.2,2.7-0.5c0.6-0.3,0.9-0.8,0.9-1.5
		c0-0.6-0.3-1.1-0.9-1.4C51.2,20.8,50.4,20.6,49.2,20.6 M46.3,13.4c0,0.7,0.3,1.4,0.8,1.9c0.5,0.5,1.2,0.8,1.9,0.8
		c0.8,0,1.4-0.3,1.9-0.8c0.5-0.5,0.8-1.2,0.8-1.9c0-0.8-0.3-1.4-0.8-1.9c-0.5-0.5-1.2-0.8-1.9-0.8c-0.8,0-1.4,0.3-1.9,0.8
		C46.6,12,46.3,12.6,46.3,13.4"/>
	<path fill="#FFF" d="M56.6,6.2h-1.2V4.3h1.2V6.2z M56.6,20.1h-1.2V9.7h1.2V20.1z"/>
	<path fill="#FFF" d="M67,19.7c-0.4,0.2-0.9,0.4-1.3,0.5c-0.4,0.1-0.9,0.2-1.3,0.2c-1.6,0-2.9-0.5-3.9-1.5c-1-1-1.5-2.3-1.5-3.9
		c0-1.5,0.5-2.8,1.6-3.9c1.1-1,2.4-1.6,4-1.6c0.4,0,0.8,0,1.2,0.1c0.4,0.1,0.8,0.2,1.2,0.3v1.3c-0.4-0.2-0.8-0.4-1.2-0.5
		c-0.4-0.1-0.8-0.2-1.3-0.2c-1.2,0-2.1,0.4-2.9,1.3c-0.8,0.8-1.2,1.9-1.2,3.1c0,1.2,0.4,2.3,1.2,3.1c0.8,0.8,1.8,1.3,2.9,1.3
		c0.4,0,0.9-0.1,1.3-0.2c0.4-0.1,0.9-0.4,1.4-0.6V19.7"/>
</g>
</svg>
