<?xml version="1.0" encoding="utf-8"?>
<!-- Generator: Adobe Illustrator 25.4.1, SVG Export Plug-In . SVG Version: 6.00 Build 0)  -->
<svg version="1.1" id="Layer_2" xmlns="http://www.w3.org/2000/svg" xmlns:xlink="http://www.w3.org/1999/xlink" x="0px" y="0px"
	 viewBox="0 0 24 24" style="enable-background:new 0 0 24 24;" xml:space="preserve">
<style type="text/css">
	.st0{fill:#66788C;}
</style>
<path class="st0" d="M23,10V7c0-1.1-0.9-2-2-2V1c0-0.6-0.4-1-1-1s-1,0.4-1,1v3c0-1.1-0.9-2-2-2H7C5.9,2,5,2.9,5,4V1c0-0.6-0.4-1-1-1
	S3,0.4,3,1v4C1.9,5,1,5.9,1,7v3c0,1.1,0.9,2,2,2v3c-1.1,0-2,0.9-2,2v3c0,1.1,0.9,2,2,2v0.5C3,23.3,3.7,24,4.5,24S6,23.3,6,22.5V22
	h12v0.5c0,0.8,0.7,1.5,1.5,1.5s1.5-0.7,1.5-1.5V22c1.1,0,2-0.9,2-2v-3c0-1.1-0.9-2-2-2v-3C22.1,12,23,11.1,23,10z M4.5,20
	C3.7,20,3,19.3,3,18.5S3.7,17,4.5,17S6,17.7,6,18.5S5.3,20,4.5,20z M17,12H7c-1.1,0-2-0.9-2-2V9c0-1.1,0.9-2,2-2h10c1.1,0,2,0.9,2,2
	v1C19,11.1,18.1,12,17,12z M19.5,20c-0.8,0-1.5-0.7-1.5-1.5s0.7-1.5,1.5-1.5s1.5,0.7,1.5,1.5S20.3,20,19.5,20z"/>
</svg>
